<svg xmlns="http://www.w3.org/2000/svg" width="18" height="18" viewBox="0 0 18 18">
    <defs>
        <style>
            .cls-1{opacity:.95}.cls-2{fill:#fff}
        </style>
    </defs>
    <g id="iconfinder_social-linkedin_216394" class="cls-1">
        <g id="Group_3" data-name="Group 3" transform="translate(.057 6.653)">
            <path id="Path_4" d="M8.845 20.347H5V9h3.845zm14.1 0H19.1v-6.061c0-1.58-.636-2.366-1.9-2.366a1.871 1.871 0 0 0-1.949 1.322v7.106h-3.843s.051-10.213 0-11.347h3.035l.235 2.269h.079a4.407 4.407 0 0 1 3.776-1.9 4.254 4.254 0 0 1 3.188 1.13 4.555 4.555 0 0 1 1.223 3.438z" class="cls-2" data-name="Path 4" transform="translate(-5 -9)"/>
        </g>
        <g id="Group_4" data-name="Group 4">
            <ellipse id="Ellipse_6" cx="1.759" cy="1.702" class="cls-2" data-name="Ellipse 6" rx="1.759" ry="1.702"/>
        </g>
    </g>
</svg>
