<svg xmlns="http://www.w3.org/2000/svg" width="15.649" height="19.652" viewBox="0 0 15.649 19.652">
    <defs>
        <style>
            .cls-1{opacity:.96}.cls-2{fill:#fff}
        </style>
    </defs>
    <g id="iconfinder_social-pinterest_216396" class="cls-1">
        <path id="Path_5" d="M14.419 4.771c-5.515 0-8.3 3.845-8.3 7.051 0 1.943.758 3.669 2.377 4.312a.4.4 0 0 0 .581-.28c.053-.2.18-.7.237-.909a.535.535 0 0 0-.166-.628 3.2 3.2 0 0 1-.762-2.217A5.425 5.425 0 0 1 14.1 6.7c3.119 0 4.832 1.855 4.832 4.326 0 3.256-1.482 6-3.682 6a1.761 1.761 0 0 1-1.83-2.176 23.724 23.724 0 0 0 1.025-4.006 1.528 1.528 0 0 0-1.564-1.694c-1.241 0-2.24 1.247-2.24 2.921a4.216 4.216 0 0 0 .373 1.786s-1.273 5.235-1.494 6.151a12.268 12.268 0 0 0-.033 4.292.155.155 0 0 0 .274.065 11.962 11.962 0 0 0 2.1-3.7c.145-.5.817-3.1.817-3.1a3.359 3.359 0 0 0 2.836 1.4c3.733 0 6.263-3.306 6.263-7.737-.008-3.338-2.925-6.457-7.358-6.457z" class="cls-2" data-name="Path 5" transform="translate(-6.123 -4.771)"/>
    </g>
</svg>
