<svg xmlns="http://www.w3.org/2000/svg" width="18.939" height="15.412" viewBox="0 0 18.939 15.412">
    <defs>
        <style>
            .cls-1{fill:#fff;opacity:.95}
        </style>
    </defs>
    <path id="iconfinder_icon-social-twitter_211920" d="M39.039 65.826a7.856 7.856 0 0 1-2.231.614 3.9 3.9 0 0 0 1.71-2.151 7.721 7.721 0 0 1-2.468.943 3.885 3.885 0 0 0-6.723 2.657 3.8 3.8 0 0 0 .1.887 11.012 11.012 0 0 1-8.011-4.066 3.9 3.9 0 0 0 1.2 5.193 3.793 3.793 0 0 1-1.762-.486v.048a3.889 3.889 0 0 0 3.118 3.813 3.911 3.911 0 0 1-1.023.136 3.666 3.666 0 0 1-.73-.072 3.892 3.892 0 0 0 3.632 2.7 7.791 7.791 0 0 1-4.828 1.666 7.876 7.876 0 0 1-.927-.056 11.037 11.037 0 0 0 17.013-9.311c0-.169 0-.337-.012-.5a7.976 7.976 0 0 0 1.942-2.015z" class="cls-1" transform="translate(-20.1 -64)"/>
</svg>
