<svg xmlns="http://www.w3.org/2000/svg" width="20" height="14" viewBox="0 0 20 14">
    <defs>
        <style>
            .cls-1{opacity:.95}.cls-2{fill:#fff;fill-rule:evenodd}
        </style>
    </defs>
    <g id="black" class="cls-1">
        <g id="youtube">
            <path id="Fill-195" d="M20.626 3.963a4.3 4.3 0 0 0-.8-1.976 2.867 2.867 0 0 0-2-.843c-2.8-.2-7-.2-7-.2h-.009s-4.2 0-7 .2a2.868 2.868 0 0 0-2 .843 4.292 4.292 0 0 0-.795 1.976 29.963 29.963 0 0 0-.2 3.221v1.51a29.962 29.962 0 0 0 .2 3.221 4.292 4.292 0 0 0 .795 1.976 3.4 3.4 0 0 0 2.205.851c1.6.153 6.8.2 6.8.2s4.2-.006 7-.208a2.867 2.867 0 0 0 2-.843 4.3 4.3 0 0 0 .8-1.976 30.027 30.027 0 0 0 .2-3.221V7.185a30.028 30.028 0 0 0-.196-3.222zM8.761 10.525V4.932l5.4 2.806z" class="cls-2" transform="translate(-.826 -.943)"/>
        </g>
    </g>
</svg>
